<?xml version="1.0" encoding="utf-8"?><!-- Uploaded to: SVG Repo, www.svgrepo.com, Generator: SVG Repo Mixer Tools -->
<svg width="800px" height="800px" viewBox="0 0 24 24" fill="none" xmlns="http://www.w3.org/2000/svg">
<path fill-rule="evenodd" clip-rule="evenodd" d="M12 7.5C9.51472 7.5 7.5 9.51472 7.5 12C7.5 14.4853 9.51472 16.5 12 16.5C14.4853 16.5 16.5 14.4853 16.5 12C16.5 9.51472 14.4853 7.5 12 7.5ZM6 12C6 8.68629 8.68629 6 12 6C15.3137 6 18 8.68629 18 12C18 15.3137 15.3137 18 12 18C8.68629 18 6 15.3137 6 12Z" fill="#080341"/>
<path fill-rule="evenodd" clip-rule="evenodd" d="M12.75 3V5.25H11.25V3H12.75Z" fill="#080341"/>
<path fill-rule="evenodd" clip-rule="evenodd" d="M21 12.75L18.75 12.75L18.75 11.25L21 11.25L21 12.75Z" fill="#080341"/>
<path fill-rule="evenodd" clip-rule="evenodd" d="M18.8943 6.16637L17.3033 7.75736L16.2426 6.6967L17.8336 5.10571L18.8943 6.16637Z" fill="#080341"/>
<path fill-rule="evenodd" clip-rule="evenodd" d="M17.8336 18.8944L16.2426 17.3034L17.3033 16.2428L18.8943 17.8337L17.8336 18.8944Z" fill="#080341"/>
<path fill-rule="evenodd" clip-rule="evenodd" d="M12.75 18.75V21H11.25V18.75H12.75Z" fill="#080341"/>
<path fill-rule="evenodd" clip-rule="evenodd" d="M5.25 12.75L3 12.75L3 11.25L5.25 11.25L5.25 12.75Z" fill="#080341"/>
<path fill-rule="evenodd" clip-rule="evenodd" d="M7.75732 17.3033L6.16633 18.8943L5.10567 17.8337L6.69666 16.2427L7.75732 17.3033Z" fill="#080341"/>
<path fill-rule="evenodd" clip-rule="evenodd" d="M6.69666 7.75744L5.10567 6.16645L6.16633 5.10579L7.75732 6.69678L6.69666 7.75744Z" fill="#080341"/>
</svg>